# xmcd
#
# Track frame offsets:
#	150
#	14120
#	31930
#	50592
#	66462
#	86488
#	96993
#	118798
#	139442
#	154383
#	170865
#	184267
#	199986
#	214926
#	232627
# Disc length: 3308 seconds
# Revision: 1
# Processed by: cddbd v1.5.2PL0 Copyright (c) Steve Scherf et al.
#
# Submitted via: libkcddb 0.21
#
DISCID=e70cea0f
DTITLE=Birgit Fischer - Barmusik
DYEAR=2006
DGENRE=Club-house
TTITLE0=Eins und eins live
TTITLE1=Fly me to the moon
TTITLE2=The look of love
TTITLE3=Dream a little dream
TTITLE4=As time goes bye
TTITLE5=Yesterday
TTITLE6=Bossa medley
TTITLE7=My funny valentine
TTITLE8=My favourite things
TTITLE9=Send in the clowns
TTITLE10=Route 66 live
TTITLE11=Unforgettable live
TTITLE12=My favourite things duo
TTITLE13=Fly me to the moon duo
TTITLE14=Rote Rosen live
EXTD=Hamburg, Germany
EXTT0=
EXTT1=
EXTT2=
EXTT3=
EXTT4=
EXTT5=
EXTT6=
EXTT7=
EXTT8=
EXTT9=
EXTT10=
EXTT11=
EXTT12=
EXTT13=
EXTT14=
PLAYORDER=
